<?xml version="1.0" encoding="UTF-8"?>
<svg width="32px" height="29px" viewBox="0 0 32 29" version="1.1" xmlns="http://www.w3.org/2000/svg" xmlns:xlink="http://www.w3.org/1999/xlink">
    <!-- Generator: Sketch 52.6 (67491) - http://www.bohemiancoding.com/sketch -->
    <title>Shape Copy</title>
    <desc>Created with Sketch.</desc>
    <g id="Page-1" stroke="none" stroke-width="1" fill="none" fill-rule="evenodd">
        <g id="Desktop" transform="translate(-41.000000, -975.000000)" fill="#B6B6B6">
            <g id="Footer" transform="translate(0.000000, 947.000000)">
                <path d="M66.0434842,40.0553808 C63.3986221,40.4714085 60.8152685,44.4381327 61.0103986,46.0621981 C61.3561184,48.9543695 65.1717614,52.2136241 69.3013096,50.5472884 C72.4127873,49.292531 72.2706816,45.8931174 71.6216617,44.0020823 C70.5251151,40.8251433 68.1029559,39.728343 66.0434842,40.0553808 Z M70.7688496,33.351848 C70.2931701,32.5595081 69.3374867,32.0460365 68.0488277,32.6347583 C66.1417853,33.5045615 64.8963699,33.3673407 63.6033865,31.7494624 C62.6736493,30.5808717 61.4844505,30.6428424 60.4530909,31.654293 C57.2963087,34.7528288 57.5536081,39.5776916 59.6055165,44.2365615 C59.7482203,44.5596945 59.9860601,44.5154297 60.1244396,44.2365615 C61.011117,42.4618154 62.328135,40.9498486 63.9493352,39.8454936 C66.5763834,38.1191666 70.435874,39.0487273 72.1829151,42.6275361 C73.289951,44.9049599 73.0023811,46.936714 72.8488664,48.1008782 C72.6629189,49.4907928 71.0780413,51.5623853 69.160188,52.0315921 C65.0282628,53.0386162 61.9731031,51.1728551 60.2563325,48.1407165 C59.996871,47.6825759 59.7828152,47.7799584 59.5255158,48.1407165 C59.2682165,48.5014746 57.9514491,49.7010506 57.5795542,49.8980289 C57.2076593,50.0950073 57.3806337,50.2787062 57.493067,50.4181403 C57.6927502,50.707286 57.8671213,51.0139019 58.0141523,51.3344216 C58.8790241,53.4104405 56.8963055,56.3407701 52.8249213,56.8962933 C46.0529749,57.8147878 42.0464562,52.4786666 41.1426651,46.9676994 C40.5004978,43.0502649 42.0464562,38.5330424 45.3718883,37.0457453 C47.31785,36.175942 49.1816488,36.5721119 50.0616558,37.9775192 C50.9913931,39.4626031 49.9730065,40.633407 49.196784,40.8989958 C48.6994827,41.0694153 48.3751558,40.9277679 48.5113731,40.3766712 C48.8227269,39.1306172 47.3264987,37.6256141 45.3351313,38.6702633 C42.1091594,40.3611785 41.129692,44.610599 43.4345754,46.8681036 C45.5405383,48.9286299 47.9427199,48.1008782 49.7135449,46.1488007 C50.4184155,45.367527 51.183827,44.0130242 52.1914027,43.4929129 C55.2184541,41.9679906 58.4617235,45.3940859 56.5784651,48.3199889 C56.3903554,48.6099233 56.011974,49.2052849 56.481167,49.1079023 C57.9082055,48.8423135 58.6801036,47.6250316 58.9784844,47.1159865 C59.2768652,46.6069413 59.2638921,46.4852131 59.0001062,45.8544398 C55.9190003,38.5241895 56.167651,31.3909175 62.7125685,28.5269852 C65.8347558,27.159203 70.5937131,28.3919775 71.2618266,32.9534648 C71.3202054,33.3474215 71.1731772,34.0246729 70.7688496,33.3496347 L70.7688496,33.351848 Z" id="Shape-Copy"></path>
            </g>
        </g>
    </g>
</svg>