<?xml version="1.0" encoding="UTF-8"?>
<svg width="185px" height="29px" viewBox="0 0 185 29" version="1.1" xmlns="http://www.w3.org/2000/svg" xmlns:xlink="http://www.w3.org/1999/xlink">
    <!-- Generator: Sketch 52.6 (67491) - http://www.bohemiancoding.com/sketch -->
    <title>logo-jp</title>
    <desc>Created with Sketch.</desc>
    <defs>
        <path d="M27.7519531,43.7265625 C26.7858025,43.7265625 25.9837271,43.6126313 25.3457031,43.3847656 L25.3457031,40.8417969 C25.9654979,41.0058602 26.5989551,41.0878906 27.2460938,41.0878906 C28.6132881,41.0878906 29.296875,40.3131588 29.296875,38.7636719 L29.296875,21.8789062 L32.5097656,21.8789062 L32.5097656,38.9824219 C32.5097656,40.5410234 32.1018921,41.7213502 31.2861328,42.5234375 C30.4703735,43.3255248 29.2923254,43.7265625 27.7519531,43.7265625 Z M29.1054688,17.8730469 C29.1054688,17.2988253 29.2626937,16.8567724 29.5771484,16.546875 C29.8916031,16.2369776 30.3404919,16.0820312 30.9238281,16.0820312 C31.4889351,16.0820312 31.9287094,16.2369776 32.2431641,16.546875 C32.5576188,16.8567724 32.7148438,17.2988253 32.7148438,17.8730469 C32.7148438,18.4199246 32.5576188,18.8505844 32.2431641,19.1650391 C31.9287094,19.4794938 31.4889351,19.6367188 30.9238281,19.6367188 C30.3404919,19.6367188 29.8916031,19.4794938 29.5771484,19.1650391 C29.2626937,18.8505844 29.1054688,18.4199246 29.1054688,17.8730469 Z M50.515625,29.4121094 C50.515625,31.8821738 49.8821678,33.8098889 48.6152344,35.1953125 C47.348301,36.5807361 45.5846467,37.2734375 43.3242188,37.2734375 C41.9114513,37.2734375 40.6627658,36.9544303 39.578125,36.3164062 C38.4934842,35.6783822 37.6595081,34.7623758 37.0761719,33.5683594 C36.4928356,32.374343 36.2011719,30.9889402 36.2011719,29.4121094 C36.2011719,26.9602742 36.8300718,25.0462308 38.0878906,23.6699219 C39.3457094,22.2936129 41.1184781,21.6054688 43.40625,21.6054688 C45.5937609,21.6054688 47.3255145,22.3095633 48.6015625,23.7177734 C49.8776105,25.1259836 50.515625,27.0240766 50.515625,29.4121094 Z M39.5097656,29.4121094 C39.5097656,32.9030122 40.7994663,34.6484375 43.3789062,34.6484375 C45.9310023,34.6484375 47.2070312,32.9030122 47.2070312,29.4121094 C47.2070312,25.957665 45.9218879,24.2304688 43.3515625,24.2304688 C42.0025974,24.2304688 41.0250681,24.6770789 40.4189453,25.5703125 C39.8128225,26.4635461 39.5097656,27.7441323 39.5097656,29.4121094 Z M59.3066406,37.2734375 C57.4199124,37.2734375 55.947922,36.5898506 54.890625,35.2226562 C53.833328,33.8554619 53.3046875,31.9368613 53.3046875,29.4667969 C53.3046875,26.9876178 53.8401639,25.0576241 54.9111328,23.6767578 C55.9821017,22.2958915 57.4654853,21.6054688 59.3613281,21.6054688 C61.3483172,21.6054688 62.8613229,22.3391854 63.9003906,23.8066406 L64.0644531,23.8066406 C63.9095044,22.7219998 63.8320312,21.8652375 63.8320312,21.2363281 L63.8320312,15.7265625 L67.0585938,15.7265625 L67.0585938,37 L64.5429688,37 L63.9824219,35.0175781 L63.8320312,35.0175781 C62.8020782,36.5214919 61.2936297,37.2734375 59.3066406,37.2734375 Z M60.1679688,34.6757812 C61.4895899,34.6757812 62.4511689,34.3043657 63.0527344,33.5615234 C63.6542999,32.8186812 63.9641926,31.6132896 63.9824219,29.9453125 L63.9824219,29.4941406 C63.9824219,27.5891832 63.6725291,26.2356811 63.0527344,25.4335938 C62.4329396,24.6315064 61.4622462,24.2304688 60.140625,24.2304688 C59.010411,24.2304688 58.139977,24.688472 57.5292969,25.6044922 C56.9186167,26.5205124 56.6132812,27.8261634 56.6132812,29.5214844 C56.6132812,31.1985761 56.9095022,32.4768836 57.5019531,33.3564453 C58.094404,34.236007 58.983067,34.6757812 60.1679688,34.6757812 Z M69.3554688,21.8789062 L72.8554688,21.8789062 L75.9316406,30.4511719 C76.3964867,31.6725321 76.7063794,32.8209582 76.8613281,33.8964844 L76.9707031,33.8964844 C77.0527348,33.3951798 77.2031239,32.7867874 77.421875,32.0712891 C77.6406261,31.3557907 78.7981666,27.9583637 80.8945312,21.8789062 L84.3671875,21.8789062 L77.9003906,39.0097656 C76.7246035,42.1543126 74.7649877,43.7265625 72.0214844,43.7265625 C71.3105433,43.7265625 70.6178419,43.6490893 69.9433594,43.4941406 L69.9433594,40.9511719 C70.4264347,41.0605474 70.9778615,41.1152344 71.5976562,41.1152344 C73.1471432,41.1152344 74.236325,40.2174569 74.8652344,38.421875 L75.4257812,37 L69.3554688,21.8789062 Z M137.974609,37.2734375 C136.060537,37.2734375 134.574875,36.5852933 133.517578,35.2089844 L133.326172,35.2089844 C133.453777,36.4850324 133.517578,37.2597643 133.517578,37.5332031 L133.517578,43.7265625 L130.304688,43.7265625 L130.304688,21.8789062 L132.902344,21.8789062 C132.975261,22.1614597 133.12565,22.8359322 133.353516,23.9023438 L133.517578,23.9023438 C134.520187,22.3710861 136.024079,21.6054688 138.029297,21.6054688 C139.916025,21.6054688 141.385737,22.2890557 142.438477,23.65625 C143.491216,25.0234443 144.017578,26.9420449 144.017578,29.4121094 C144.017578,31.8821738 143.482102,33.8098889 142.411133,35.1953125 C141.340164,36.5807361 139.861338,37.2734375 137.974609,37.2734375 Z M137.195312,24.2304688 C135.919264,24.2304688 134.987308,24.6041629 134.399414,25.3515625 C133.81152,26.0989621 133.517578,27.2929605 133.517578,28.9335938 L133.517578,29.4121094 C133.517578,31.2532644 133.809242,32.5862589 134.392578,33.4111328 C134.975914,34.2360067 135.928379,34.6484375 137.25,34.6484375 C138.361985,34.6484375 139.218747,34.1927129 139.820312,33.28125 C140.421878,32.3697871 140.722656,31.070972 140.722656,29.3847656 C140.722656,27.6894446 140.424157,26.4065799 139.827148,25.5361328 C139.23014,24.6656858 138.35287,24.2304688 137.195312,24.2304688 Z M157.210938,37 L156.568359,34.8945312 L156.458984,34.8945312 C155.729814,35.8151088 154.996097,36.4417301 154.257812,36.7744141 C153.519528,37.107098 152.57162,37.2734375 151.414062,37.2734375 C149.928378,37.2734375 148.768559,36.8723998 147.93457,36.0703125 C147.100582,35.2682252 146.683594,34.1334709 146.683594,32.6660156 C146.683594,31.1074141 147.262364,29.9316446 148.419922,29.1386719 C149.57748,28.3456992 151.341134,27.9127608 153.710938,27.8398438 L156.322266,27.7578125 L156.322266,26.9511719 C156.322266,25.9850212 156.096682,25.2626977 155.645508,24.7841797 C155.194334,24.3056617 154.494796,24.0664062 153.546875,24.0664062 C152.772132,24.0664062 152.0293,24.1803374 151.318359,24.4082031 C150.607418,24.6360688 149.923831,24.9049464 149.267578,25.2148438 L148.228516,22.9179688 C149.048832,22.4895812 149.94661,22.1637381 150.921875,21.9404297 C151.89714,21.7171213 152.817704,21.6054688 153.683594,21.6054688 C155.60678,21.6054688 157.058263,22.0247354 158.038086,22.8632812 C159.017909,23.7018271 159.507812,25.0188712 159.507812,26.8144531 L159.507812,37 L157.210938,37 Z M152.425781,34.8125 C153.592454,34.8125 154.528968,34.4866569 155.235352,33.8349609 C155.941735,33.183265 156.294922,32.2695371 156.294922,31.09375 L156.294922,29.78125 L154.353516,29.8632812 C152.840487,29.917969 151.739912,30.1708962 151.051758,30.6220703 C150.363603,31.0732444 150.019531,31.7636672 150.019531,32.6933594 C150.019531,33.3678419 150.22005,33.8896466 150.621094,34.2587891 C151.022137,34.6279315 151.623694,34.8125 152.425781,34.8125 Z M161.695312,21.8789062 L165.195312,21.8789062 L168.271484,30.4511719 C168.73633,31.6725321 169.046223,32.8209582 169.201172,33.8964844 L169.310547,33.8964844 C169.392579,33.3951798 169.542968,32.7867874 169.761719,32.0712891 C169.98047,31.3557907 171.13801,27.9583637 173.234375,21.8789062 L176.707031,21.8789062 L170.240234,39.0097656 C169.064447,42.1543126 167.104831,43.7265625 164.361328,43.7265625 C163.650387,43.7265625 162.957686,43.6490893 162.283203,43.4941406 L162.283203,40.9511719 C162.766278,41.0605474 163.317705,41.1152344 163.9375,41.1152344 C165.486987,41.1152344 166.576169,40.2174569 167.205078,38.421875 L167.765625,37 L161.695312,21.8789062 Z M192.306641,37 L189.080078,37 L189.080078,27.703125 C189.080078,26.5364525 188.84538,25.6660185 188.375977,25.0917969 C187.906573,24.5175753 187.161463,24.2304688 186.140625,24.2304688 C184.782545,24.2304688 183.789066,24.6315064 183.160156,25.4335938 C182.531247,26.2356811 182.216797,27.5800687 182.216797,29.4667969 L182.216797,37 L179.003906,37 L179.003906,21.8789062 L181.519531,21.8789062 L181.970703,23.8613281 L182.134766,23.8613281 C182.590497,23.1412724 183.237626,22.5852884 184.076172,22.1933594 C184.914718,21.8014303 185.844396,21.6054688 186.865234,21.6054688 C190.492857,21.6054688 192.306641,23.4511534 192.306641,27.1425781 L192.306641,37 Z M203.380859,37.2734375 C201.029285,37.2734375 199.190436,36.587572 197.864258,35.2158203 C196.538079,33.8440687 195.875,31.9550902 195.875,29.5488281 C195.875,27.0787637 196.490228,25.1373769 197.720703,23.7246094 C198.951178,22.3118419 200.641916,21.6054688 202.792969,21.6054688 C204.789072,21.6054688 206.36588,22.2115825 207.523438,23.4238281 C208.680995,24.6360738 209.259766,26.3040258 209.259766,28.4277344 L209.259766,30.1640625 L199.183594,30.1640625 C199.229167,31.6315178 199.625647,32.7594362 200.373047,33.5478516 C201.120446,34.336267 202.17317,34.7304688 203.53125,34.7304688 C204.424484,34.7304688 205.256181,34.6461597 206.026367,34.4775391 C206.796553,34.3089184 207.623693,34.0286478 208.507812,33.6367188 L208.507812,36.2480469 C207.723954,36.6217467 206.930994,36.8860669 206.128906,37.0410156 C205.326819,37.1959643 204.410812,37.2734375 203.380859,37.2734375 Z M202.792969,24.0390625 C201.77213,24.0390625 200.954105,24.362627 200.338867,25.0097656 C199.72363,25.6569043 199.356771,26.6002542 199.238281,27.8398438 L206.101562,27.8398438 C206.083333,26.5911396 205.782555,25.645511 205.199219,25.0029297 C204.615882,24.3603483 203.813807,24.0390625 202.792969,24.0390625 Z" id="path-1"></path>
    </defs>
    <g id="Page-1" stroke="none" stroke-width="1" fill="none" fill-rule="evenodd">
        <g id="Desktop" transform="translate(-34.000000, -22.000000)">
            <g id="Header" transform="translate(0.000000, 7.000000)">
                <g id="logo" transform="translate(9.000000, 0.000000)">
                    <g id="logo-jp">
                        <g id="jody-payne">
                            <use fill="#89B7D8" xlink:href="#path-1"></use>
                            <use fill="#397DB8" xlink:href="#path-1"></use>
                        </g>
                        <g id="logo-Asset-1" transform="translate(94.000000, 16.000000)" fill="#9DC64C">
                            <path d="M20.2309422,10.2574155 C18.0402489,10.5999335 15.900502,13.8657596 16.0621249,15.2028618 C16.3484785,17.5840026 19.5089094,20.267365 22.9293423,18.8954616 C25.5065253,17.8624129 25.3888216,15.0636566 24.8512497,13.5067569 C23.9429992,10.8911653 21.9367668,9.98816347 20.2309422,10.2574155 Z M24.1871903,4.42911557 C23.8007007,3.77338604 23.024208,3.34844399 21.9771725,3.83566203 C20.4277006,4.5554992 19.4158005,4.4419371 18.3652515,3.10300332 C17.60984,2.13589384 16.643616,2.18717995 15.8056363,3.02424251 C13.2407508,5.58854797 13.4498065,9.58153789 15.1169821,13.4371543 C15.232929,13.7045747 15.4261738,13.6679418 15.5386072,13.4371543 C16.2590325,11.968399 17.3291097,10.7171161 18.6463349,9.80316715 C20.7808115,8.37448268 23.9166476,9.14377432 25.3361185,12.1055471 C26.2355852,13.9903116 26.0019347,15.6717633 25.8772039,16.6352095 C25.7261216,17.7854837 24.4384085,19.4999051 22.8801528,19.8882142 C19.5229636,20.7216134 17.0406463,19.1775352 15.6457702,16.6681792 C15.4349577,16.2890283 15.2610373,16.3696208 15.0519816,16.6681792 C14.8429259,16.9667376 13.7730524,17.9594901 13.4708878,18.1225067 C13.1687232,18.2855233 13.3092649,18.4375499 13.400617,18.5529437 C13.5628595,18.7922367 13.7045361,19.0459878 13.8239988,19.3112454 C14.5267071,21.0293301 12.9157482,23.4544304 9.60774858,23.9141737 C4.10554211,24.6743071 0.85024563,20.2582068 0.115915392,15.6974064 C-0.405845566,12.4553916 0.85024563,8.71700062 3.55215928,7.486134 C5.13325309,6.76629683 6.64758961,7.0941616 7.36259537,8.25725729 C8.11800686,9.48629226 7.29056776,10.4552334 6.65988701,10.675031 C6.2558297,10.8160678 5.99231406,10.6988424 6.10299063,10.2427624 C6.35596564,9.21154525 5.14028018,7.96602545 3.52229417,8.83056272 C0.901191986,10.2299408 0.105374767,13.7467026 1.97809255,15.6149823 C3.68918741,17.3202454 5.64095988,16.6352095 7.07975525,15.0196971 C7.65246257,14.3731258 8.27435947,13.252158 9.09301471,12.821721 C11.552494,11.5597164 14.1876503,14.3951056 12.6575029,16.8165426 C12.5046638,17.0564883 12.1972289,17.5492013 12.5784482,17.4686088 C13.737917,17.2488112 14.3650842,16.2414055 14.6075186,15.8201267 C14.849953,15.398848 14.8394123,15.2981074 14.6250863,14.7760881 C12.1216877,8.70967404 12.3237164,2.80627655 17.6414619,0.436125652 C20.1782391,-0.695832041 24.0448919,0.3243952 24.5877341,4.09941916 C24.6351669,4.42545228 24.5157065,4.98593619 24.1871903,4.42728393 L24.1871903,4.42911557 Z" id="Shape"></path>
                        </g>
                    </g>
                </g>
            </g>
        </g>
    </g>
</svg>